<svg xmlns="http://www.w3.org/2000/svg" viewBox="0 0 24 24">
  <g fill="#e8a781">
    <path d="M12 3.1c2.1 2.2 2.8 4.6.6 7.1c-2.3-2-2.8-4.4-.6-7.1z"/>
    <path d="M19.5 8.2c.9 2.9.1 5.1-2.8 6.5c-.8-2.9.1-5.1 2.8-6.5z"/>
    <path d="M17 19.2c-2.6 1.4-4.9 1.2-7-.9c2.5-1.5 4.8-1.3 7 .9z"/>
    <path d="M7 19.2c-2.6-1.4-3.7-3.4-3.3-6.3c2.5 1.4 3.7 3.4 3.3 6.3z"/>
    <path d="M4.5 8.2c2.7 1.4 3.6 3.6 2.8 6.5c-2.9-1.4-3.8-3.6-2.8-6.5z"/>
  </g>
  <circle cx="12" cy="12.2" r="2.2" fill="#7f452a"/>
</svg>
