<svg xmlns="http://www.w3.org/2000/svg" viewBox="0 0 24 24">
  <g fill="#f0cab8">
    <ellipse cx="12" cy="5.2" rx="1.9" ry="5"/>
    <ellipse cx="16" cy="6.1" rx="1.9" ry="5" transform="rotate(20 16 6.1)"/>
    <ellipse cx="18.6" cy="9.3" rx="1.9" ry="5" transform="rotate(50 18.6 9.3)"/>
    <ellipse cx="18.7" cy="14.6" rx="1.9" ry="5" transform="rotate(88 18.7 14.6)"/>
    <ellipse cx="16.3" cy="18.1" rx="1.9" ry="5" transform="rotate(123 16.3 18.1)"/>
    <ellipse cx="12" cy="19.1" rx="1.9" ry="5" transform="rotate(160 12 19.1)"/>
    <ellipse cx="7.8" cy="18.1" rx="1.9" ry="5" transform="rotate(198 7.8 18.1)"/>
    <ellipse cx="5.3" cy="14.6" rx="1.9" ry="5" transform="rotate(236 5.3 14.6)"/>
    <ellipse cx="5.4" cy="9.3" rx="1.9" ry="5" transform="rotate(272 5.4 9.3)"/>
    <ellipse cx="8" cy="6.1" rx="1.9" ry="5" transform="rotate(310 8 6.1)"/>
  </g>
  <circle cx="12" cy="12.1" r="2.2" fill="#9b5d3d"/>
</svg>
