<svg xmlns="http://www.w3.org/2000/svg" viewBox="0 0 24 24">
  <g fill="#cf6f57">
    <path d="M12 2.8c1.5 2.2 1.8 4.5 0 6.6c-1.8-2.1-1.5-4.4 0-6.6z"/>
    <path d="M19.6 7c.4 2.7-.5 4.8-3.2 5.8c-.3-2.8.6-4.7 3.2-5.8z"/>
    <path d="M21 14.4c-1.3 2.4-3.3 3.5-6 2.6c1.4-2.5 3.4-3.4 6-2.6z"/>
    <path d="M16.4 21c-2.7.4-4.8-.5-5.8-3.2c2.8-.3 4.7.6 5.8 3.2z"/>
    <path d="M7.6 21c-2.7-.4-4.3-1.9-4.7-4.7c2.8.2 4.4 1.8 4.7 4.7z"/>
    <path d="M3 14.4c-1.3-2.4-1-4.6.8-6.4c1.4 2.4 1.1 4.5-.8 6.4z"/>
    <path d="M4.4 7c2.6 1 3.5 3 3.2 5.8C4.9 11.8 4 9.7 4.4 7z"/>
  </g>
  <circle cx="12" cy="12.2" r="2.5" fill="#4f2018"/>
</svg>
