<svg xmlns="http://www.w3.org/2000/svg" viewBox="0 0 24 24">
  <g fill="#f3c6b0">
    <path d="M12 4.1c1.4 1.5 1.6 3 0 4.6c-1.6-1.6-1.4-3.1 0-4.6z"/>
    <path d="M17.8 7c.2 2-.5 3.4-2.4 4.2c-.3-2 .5-3.3 2.4-4.2z"/>
    <path d="M20 12c-1.1 1.7-2.5 2.4-4.5 1.9c1.1-1.8 2.6-2.4 4.5-1.9z"/>
    <path d="M17.8 17c-2 .2-3.4-.5-4.2-2.4c2-.3 3.3.5 4.2 2.4z"/>
    <path d="M12 19.9c-1.6-1.6-1.4-3.1 0-4.6c1.4 1.5 1.6 3 0 4.6z"/>
    <path d="M6.2 17c2-.3 3.3.5 4.2 2.4c-2 .2-3.4-.5-4.2-2.4z"/>
    <path d="M4 12c1.9-.5 3.4.1 4.5 1.9c-2 .5-3.4-.1-4.5-1.9z"/>
    <path d="M6.2 7c1.9.9 2.7 2.2 2.4 4.2c-1.9-.8-2.7-2.2-2.4-4.2z"/>
  </g>
  <circle cx="12" cy="12" r="2" fill="#9a5d3c"/>
</svg>
