<svg xmlns="http://www.w3.org/2000/svg" viewBox="0 0 24 24">
  <g fill="#de8a67">
    <ellipse cx="12" cy="5.2" rx="2.2" ry="4.8"/>
    <ellipse cx="15.8" cy="6.7" rx="2.2" ry="4.8" transform="rotate(28 15.8 6.7)"/>
    <ellipse cx="18.1" cy="10.1" rx="2.2" ry="4.8" transform="rotate(56 18.1 10.1)"/>
    <ellipse cx="18.3" cy="14" rx="2.2" ry="4.8" transform="rotate(86 18.3 14)"/>
    <ellipse cx="16.5" cy="17.2" rx="2.2" ry="4.8" transform="rotate(120 16.5 17.2)"/>
    <ellipse cx="12.9" cy="18.9" rx="2.2" ry="4.8" transform="rotate(154 12.9 18.9)"/>
    <ellipse cx="9.1" cy="18.8" rx="2.2" ry="4.8" transform="rotate(200 9.1 18.8)"/>
    <ellipse cx="6" cy="16.6" rx="2.2" ry="4.8" transform="rotate(236 6 16.6)"/>
    <ellipse cx="4.6" cy="13" rx="2.2" ry="4.8" transform="rotate(270 4.6 13)"/>
    <ellipse cx="5.7" cy="9.3" rx="2.2" ry="4.8" transform="rotate(308 5.7 9.3)"/>
  </g>
  <circle cx="12" cy="12.2" r="2.3" fill="#6f3421"/>
</svg>
