<svg xmlns="http://www.w3.org/2000/svg" viewBox="0 0 64 64">
  <defs>
    <linearGradient id="petalA" x1="0%" y1="0%" x2="100%" y2="100%">
      <stop offset="0%" stop-color="#f3c5b0"/>
      <stop offset="100%" stop-color="#d8825f"/>
    </linearGradient>
    <linearGradient id="petalB" x1="0%" y1="0%" x2="100%" y2="100%">
      <stop offset="0%" stop-color="#e49b77"/>
      <stop offset="100%" stop-color="#9a4334"/>
    </linearGradient>
    <linearGradient id="leaf" x1="0%" y1="0%" x2="100%" y2="100%">
      <stop offset="0%" stop-color="#b9c3ad"/>
      <stop offset="100%" stop-color="#6a755f"/>
    </linearGradient>
  </defs>
  <ellipse cx="27" cy="26" rx="8" ry="12" fill="url(#petalB)" transform="rotate(-16 27 26)"/>
  <ellipse cx="36" cy="26" rx="8" ry="12" fill="url(#petalA)" transform="rotate(14 36 26)"/>
  <ellipse cx="31.5" cy="20" rx="6" ry="10" fill="url(#petalA)"/>
  <ellipse cx="31.5" cy="32.5" rx="7" ry="10.5" fill="url(#petalB)" transform="rotate(6 31.5 32.5)"/>
  <circle cx="31.5" cy="27.5" r="4.2" fill="#5a251d"/>
  <ellipse cx="21" cy="39.5" rx="6.5" ry="3.2" fill="url(#leaf)" transform="rotate(-24 21 39.5)"/>
  <ellipse cx="42.5" cy="39" rx="6.8" ry="3.2" fill="url(#leaf)" transform="rotate(20 42.5 39)"/>
  <path d="M30 35c-3 5-6 9-10 13" stroke="#7f6a57" stroke-width="2.2" stroke-linecap="round" fill="none"/>
  <path d="M33 35c3 5 6 9 10 13" stroke="#7f6a57" stroke-width="2.2" stroke-linecap="round" fill="none"/>
</svg>
